<?xml version="1.0" encoding="utf-8"?>
<!-- Generator: Adobe Illustrator 24.2.0, SVG Export Plug-In . SVG Version: 6.00 Build 0)  -->
<svg version="1.1" id="图层_1" xmlns="http://www.w3.org/2000/svg" xmlns:xlink="http://www.w3.org/1999/xlink" x="0px" y="0px"
	 viewBox="0 0 110 37" style="enable-background:new 0 0 110 37;" xml:space="preserve">
<style type="text/css">
	.st0{fill:#0000FF;}
	.st1{fill:#FFFFFF;}
</style>
<g>
	<path class="st0" d="M27,20.4l-8.2,8.2l-9.5-9.5l9.5-9.5l8.2,8.2h8.6C35,9,27.6,2.1,18.7,2.1c-9.3,0-16.9,7.6-16.9,17
		S9.4,36,18.7,36c8.9,0,16.2-6.9,16.9-15.6H27z"/>
	<path class="st0" d="M20.1,19.4c-0.1,0.6-0.7,1.1-1.4,1.1c-0.8,0-1.4-0.6-1.4-1.4s0.6-1.4,1.4-1.4c0.7,0,1.2,0.5,1.4,1.1h0.6h2.1
		c-0.2-2.1-1.9-3.8-4.1-3.8s-4.1,1.8-4.1,4.1s1.8,4.1,4.1,4.1c2.1,0,3.9-1.7,4.1-3.8h-2.1C20.7,19.4,20.1,19.4,20.1,19.4z"/>
</g>
<g>
	<path class="st1" d="M58.3,14.7c0,0.5-0.1,1-0.2,1.4c-0.2,0.4-0.4,0.8-0.6,1.1s-0.6,0.6-0.9,0.8c-0.4,0.2-0.7,0.4-1.1,0.6
		c0.8,0.4,1.4,0.9,1.9,1.6c0.5,0.7,0.7,1.5,0.7,2.4c0,1-0.2,1.8-0.5,2.3c-0.3,0.6-0.8,1.1-1.3,1.4c-0.6,0.3-1.2,0.5-1.9,0.6
		c-0.7,0.1-1.4,0.2-2.2,0.2h-8.7l1.9-1.7v-5.5c-0.4,0-0.8,0.1-1.2,0.1s-0.8,0.1-1.3,0.2l0.2-0.4c0.3-0.1,0.7-0.1,1.1-0.2
		c0.4-0.1,0.8-0.1,1.3-0.2v-0.6c-0.3,0-0.7,0.1-1,0.1s-0.7,0.1-1.1,0.2l0.6-1.7c0.2,0,0.5,0.1,0.9,0.1c0.3,0,0.6,0.1,0.7,0.1v-4.7
		L43.9,12c0.4-0.4,0.9-0.7,1.5-0.9c0.6-0.3,1.1-0.5,1.7-0.7c0.6-0.2,1.2-0.3,1.9-0.4c0.6-0.1,1.2-0.1,1.8-0.1c0.8,0,1.5,0.1,2.3,0.2
		c0.8,0.2,1.5,0.4,2.1,0.8c0.6,0.4,1.1,0.9,1.5,1.5c0.4,0.6,0.6,1.4,0.6,2.3c0,0.9-0.3,1.6-0.9,2.2c-0.6,0.6-1.3,1.1-2.3,1.3v0.1
		c0.3,0.1,0.6,0.2,0.8,0.3c0.4-0.1,0.7-0.3,1.1-0.5c0.4-0.2,0.7-0.5,0.9-0.8s0.5-0.7,0.7-1.1c0.2-0.4,0.3-0.9,0.3-1.4
		c0-0.7-0.2-1.3-0.5-1.9c-0.3-0.6-0.7-1-1.1-1.4l0.1-0.1c0.2,0.1,0.4,0.3,0.6,0.5c0.2,0.2,0.4,0.5,0.6,0.7c0.2,0.3,0.3,0.6,0.4,0.9
		C58.3,14,58.3,14.3,58.3,14.7z M59,22.9c0,1.2-0.2,2.2-0.7,2.8c-0.4,0.7-1,1.2-1.7,1.6c-0.7,0.4-1.4,0.6-2.3,0.7
		c-0.8,0.1-1.6,0.1-2.4,0.1h-7.4l-0.5-0.4H52c0.8,0,1.5,0,2.3-0.1c0.8-0.1,1.5-0.3,2.1-0.6c0.6-0.3,1.2-0.8,1.6-1.5s0.6-1.5,0.6-2.6
		c0-0.4-0.1-0.8-0.2-1.1c-0.1-0.4-0.3-0.7-0.4-1c-0.2-0.3-0.4-0.6-0.6-0.8c-0.2-0.2-0.4-0.4-0.6-0.6l0.1-0.1
		c0.2,0.1,0.5,0.3,0.7,0.5c0.2,0.2,0.5,0.5,0.7,0.8c0.2,0.3,0.4,0.7,0.5,1.1C58.9,22,59,22.4,59,22.9z M54.4,14.4
		c0-1.1-0.3-1.9-1-2.5C52.8,11.3,52,11,50.9,11c-0.5,0-1,0.1-1.6,0.2s-1,0.3-1.3,0.6v5.8h0.6v-5.5c0.3-0.2,0.7-0.3,1.1-0.4
		c0.4-0.1,0.8-0.2,1.2-0.2c0.2,0,0.5,0,0.8,0.1c0.3,0,0.5,0.1,0.8,0.2c0.3,0.1,0.5,0.2,0.8,0.4c0.2,0.2,0.4,0.4,0.6,0.6L53.8,13
		c-0.4-0.3-0.8-0.6-1.3-0.7s-1-0.2-1.5-0.2c-0.3,0-0.7,0-1,0.1s-0.6,0.2-0.9,0.3v5.2h0.6c0.6,0,1.1,0,1.7-0.1
		c0.6-0.1,1.1-0.2,1.5-0.4c0.5-0.2,0.8-0.6,1.1-1C54.2,15.7,54.4,15.1,54.4,14.4z M54.9,22.3c0-0.6-0.1-1.2-0.3-1.6s-0.5-0.8-0.9-1
		s-0.8-0.4-1.3-0.6c-0.5-0.1-1-0.2-1.5-0.2c-0.5,0-1-0.1-1.5-0.1s-1,0-1.4,0v7h0.6v-6.3h0.3c0.6,0,1.2,0,1.9,0s1.3,0.1,1.8,0.2
		c0.3,0.1,0.6,0.2,0.9,0.4c0.3,0.2,0.6,0.5,0.8,1l0,0c-0.2-0.3-0.5-0.5-0.8-0.7c-0.3-0.2-0.6-0.3-0.9-0.4c-0.3-0.1-0.7-0.1-1-0.2
		c-0.3,0-0.6,0-0.9-0.1c-0.2,0-0.5,0-0.9,0H49v5.9c1.1,0,2,0,2.7-0.1c0.7-0.1,1.3-0.3,1.8-0.5c0.5-0.3,0.8-0.6,1-1.1
		C54.8,23.7,54.9,23.1,54.9,22.3z"/>
	<path class="st1" d="M59.8,27.1l1.9-1.7V12l-1.9-1.8h6.5L64.3,12v13.4l1.9,1.7H59.8z M60.6,28.1l-0.4-0.4h7l-2.3-2V12.3l1.7-1.6
		l0.3,0.3l-1.6,1.5v13l3,2.6H60.6z"/>
	<path class="st1" d="M83.8,14.7c0,0.5-0.1,1-0.2,1.4c-0.2,0.4-0.4,0.8-0.6,1.1s-0.6,0.6-0.9,0.8c-0.4,0.2-0.7,0.4-1.1,0.6
		c0.8,0.4,1.4,0.9,1.9,1.6c0.5,0.7,0.7,1.5,0.7,2.4c0,1-0.2,1.8-0.5,2.3c-0.3,0.6-0.8,1.1-1.3,1.4c-0.6,0.3-1.2,0.5-1.9,0.6
		s-1.4,0.2-2.2,0.2h-8.7l1.9-1.7v-5.5c-0.4,0-0.8,0.1-1.2,0.1c-0.4,0.1-0.8,0.1-1.3,0.2l0.2-0.4c0.3-0.1,0.7-0.1,1.1-0.2
		c0.4-0.1,0.8-0.1,1.3-0.2v-0.6c-0.3,0-0.7,0.1-1,0.1s-0.7,0.1-1.1,0.2l0.6-1.7c0.2,0,0.5,0.1,0.9,0.1c0.3,0,0.6,0.1,0.7,0.1v-4.7
		L69.4,12c0.4-0.4,0.9-0.7,1.5-0.9c0.6-0.3,1.1-0.5,1.7-0.7s1.2-0.3,1.9-0.4c0.6-0.1,1.2-0.1,1.8-0.1c0.8,0,1.5,0.1,2.3,0.2
		c0.8,0.2,1.5,0.4,2.1,0.8c0.6,0.4,1.1,0.9,1.5,1.5c0.4,0.6,0.6,1.4,0.6,2.3c0,0.9-0.3,1.6-0.9,2.2s-1.3,1.1-2.3,1.3v0.1
		c0.3,0.1,0.6,0.2,0.8,0.3c0.4-0.1,0.7-0.3,1.1-0.5c0.4-0.2,0.7-0.5,0.9-0.8s0.5-0.7,0.7-1.1c0.2-0.4,0.3-0.9,0.3-1.4
		c0-0.7-0.2-1.3-0.5-1.9c-0.3-0.6-0.7-1-1.1-1.4l0.1-0.1c0.2,0.1,0.4,0.3,0.6,0.5c0.2,0.2,0.4,0.5,0.6,0.7c0.2,0.3,0.3,0.6,0.4,0.9
		C83.8,14,83.8,14.3,83.8,14.7z M84.4,22.9c0,1.2-0.2,2.2-0.7,2.8c-0.4,0.7-1,1.2-1.7,1.6c-0.7,0.4-1.4,0.6-2.3,0.7
		c-0.8,0.1-1.6,0.1-2.4,0.1H70l-0.5-0.4h7.9c0.8,0,1.5,0,2.3-0.1c0.8-0.1,1.5-0.3,2.1-0.6s1.2-0.8,1.6-1.5s0.6-1.5,0.6-2.6
		c0-0.4-0.1-0.8-0.2-1.1c-0.1-0.4-0.3-0.7-0.4-1c-0.2-0.3-0.4-0.6-0.6-0.8c-0.2-0.2-0.4-0.4-0.6-0.6l0.1-0.1
		c0.2,0.1,0.5,0.3,0.7,0.5c0.2,0.2,0.5,0.5,0.7,0.8c0.2,0.3,0.4,0.7,0.5,1.1C84.4,22,84.4,22.4,84.4,22.9z M79.9,14.4
		c0-1.1-0.3-1.9-1-2.5c-0.6-0.6-1.5-0.9-2.5-0.9c-0.5,0-1,0.1-1.6,0.2s-1,0.3-1.3,0.6v5.8h0.6v-5.5c0.3-0.2,0.7-0.3,1.1-0.4
		c0.4-0.1,0.8-0.2,1.2-0.2c0.2,0,0.5,0,0.8,0.1c0.3,0,0.5,0.1,0.8,0.2c0.3,0.1,0.5,0.2,0.8,0.4c0.2,0.2,0.4,0.4,0.6,0.6l0,0.1
		c-0.4-0.3-0.8-0.6-1.3-0.7s-1-0.2-1.5-0.2c-0.3,0-0.7,0-1,0.1s-0.6,0.2-0.9,0.3v5.2h0.6c0.6,0,1.1,0,1.7-0.1
		c0.6-0.1,1.1-0.2,1.5-0.4c0.5-0.2,0.8-0.6,1.1-1S79.9,15.1,79.9,14.4z M80.4,22.3c0-0.6-0.1-1.2-0.3-1.6c-0.2-0.4-0.5-0.8-0.9-1
		s-0.8-0.4-1.3-0.6c-0.5-0.1-1-0.2-1.5-0.2c-0.5,0-1-0.1-1.5-0.1c-0.5,0-1,0-1.4,0v7h0.6v-6.3h0.3c0.6,0,1.2,0,1.9,0
		c0.7,0,1.3,0.1,1.8,0.2c0.3,0.1,0.6,0.2,0.9,0.4c0.3,0.2,0.6,0.5,0.8,1l0,0c-0.2-0.3-0.5-0.5-0.8-0.7c-0.3-0.2-0.6-0.3-0.9-0.4
		c-0.3-0.1-0.7-0.1-1-0.2c-0.3,0-0.6,0-0.9-0.1c-0.2,0-0.5,0-0.9,0h-0.9v5.9c1.1,0,2,0,2.7-0.1c0.7-0.1,1.3-0.3,1.8-0.5
		c0.5-0.3,0.8-0.6,1-1.1C80.2,23.7,80.4,23.1,80.4,22.3z"/>
	<path class="st1" d="M94.4,27.1l1.3-1.7l-3-6L90.6,22v3.5l2.9,2.6h-7.7l-0.4-0.4h7l-2.4-2v-3.8l2.4-2.9l-0.3-0.6l-2.7,3.2v3.7
		l1.9,1.7H85l1.9-1.7V12L85,10.3h6.5L89.6,12v7.8l0.6-0.8v-6.8l1.7-1.6l0.2,0.3l-1.6,1.5v6.2l4.3-5.2c0.2-0.2,0.3-0.4,0.4-0.7
		c0.1-0.3,0.2-0.5,0.2-0.8c0-0.2-0.1-0.4-0.2-0.6c-0.1-0.2-0.2-0.3-0.4-0.5c-0.2-0.1-0.4-0.2-0.6-0.3c-0.2-0.1-0.4-0.2-0.6-0.3h7
		c-1.2,0.4-2.2,1-3,1.7c-0.8,0.7-1.5,1.5-2.2,2.4l-1.5,1.8l4.5,9.2l2.4,1.7H94.4z M95.5,28.1l-0.4-0.4h7l-2.6-1.9l-4.7-9.6l1.5-1.9
		c0.3-0.4,0.6-0.8,1-1.2s0.7-0.7,1-1c0.4-0.3,0.8-0.6,1.2-0.8c0.4-0.3,1-0.5,1.5-0.7l0.3,0.3c-0.6,0.2-1.1,0.4-1.6,0.7
		c-0.5,0.2-0.9,0.5-1.2,0.8c-0.4,0.3-0.7,0.6-1.1,1c-0.3,0.4-0.7,0.7-1,1.2l-1.3,1.6l4.6,9.3l3.4,2.5H95.5z"/>
</g>
</svg>
