<?xml version="1.0" encoding="utf-8"?>
<!-- Generator: Adobe Illustrator 24.2.0, SVG Export Plug-In . SVG Version: 6.00 Build 0)  -->
<svg version="1.1" id="图层_1" xmlns="http://www.w3.org/2000/svg" xmlns:xlink="http://www.w3.org/1999/xlink" x="0px" y="0px"
	 viewBox="0 0 50 50" style="enable-background:new 0 0 50 50;" xml:space="preserve">
<style type="text/css">
	.st0{fill:#0000FF;}
</style>
<path class="st0" d="M37.17,26.92L25,39.09L10.91,25L25,10.91l12.17,12.17h12.75C48.94,10.17,38.16,0,25,0C11.19,0,0,11.19,0,25
	s11.19,25,25,25c13.16,0,23.94-10.17,24.92-23.08H37.17z"/>
<path class="st0" d="M27.02,25.46c-0.21,0.95-1.05,1.66-2.06,1.66c-1.17,0-2.12-0.95-2.12-2.12c0-1.17,0.95-2.12,2.12-2.12
	c1.01,0,1.85,0.71,2.06,1.66h0.87h3.06c-0.24-3.1-2.83-5.55-5.99-5.55c-3.32,0-6.01,2.69-6.01,6.01c0,3.32,2.69,6.01,6.01,6.01
	c3.16,0,5.76-2.45,5.99-5.55H27.9H27.02z"/>
</svg>
